<?xml version="1.0" encoding="UTF-8" standalone="no"?>
<!DOCTYPE svg PUBLIC "-//W3C//DTD SVG 1.1//EN"
 "http://www.w3.org/Graphics/SVG/1.1/DTD/svg11.dtd">
<!-- Generated by graphviz version 2.40.1 (20161225.0304)
 -->
<!-- Title: %3 Pages: 1 -->
<svg width="308pt" height="260pt"
 viewBox="0.00 0.00 308.39 260.00" xmlns="http://www.w3.org/2000/svg" xmlns:xlink="http://www.w3.org/1999/xlink">
<g id="graph0" class="graph" transform="scale(1 1) rotate(0) translate(4 256)">
<title>%3</title>
<polygon fill="#ffffff" stroke="transparent" points="-4,4 -4,-256 304.3922,-256 304.3922,4 -4,4"/>
<!-- A -->
<g id="node1" class="node">
<title>A</title>
<ellipse fill="none" stroke="#000000" cx="97.1961" cy="-234" rx="44.393" ry="18"/>
<text text-anchor="middle" x="97.1961" y="-230.3" font-family="Times,serif" font-size="14.00" fill="#000000">p=0, h=4</text>
</g>
<!-- B -->
<g id="node2" class="node">
<title>B</title>
<ellipse fill="none" stroke="#000000" cx="44.1961" cy="-162" rx="44.393" ry="18"/>
<text text-anchor="middle" x="44.1961" y="-158.3" font-family="Times,serif" font-size="14.00" fill="#000000">p=1, h=3</text>
</g>
<!-- A&#45;&gt;B -->
<g id="edge1" class="edge">
<title>A&#45;&gt;B</title>
<path fill="none" stroke="#000000" d="M84.3663,-216.5708C77.9213,-207.8153 69.9907,-197.0418 62.8835,-187.3867"/>
<polygon fill="#000000" stroke="#000000" points="65.6547,-185.2472 56.9078,-179.2687 60.0173,-189.3969 65.6547,-185.2472"/>
</g>
<!-- C -->
<g id="node3" class="node">
<title>C</title>
<ellipse fill="none" stroke="#000000" cx="150.1961" cy="-162" rx="44.393" ry="18"/>
<text text-anchor="middle" x="150.1961" y="-158.3" font-family="Times,serif" font-size="14.00" fill="#000000">p=1, h=3</text>
</g>
<!-- A&#45;&gt;C -->
<g id="edge2" class="edge">
<title>A&#45;&gt;C</title>
<path fill="none" stroke="#000000" d="M110.0259,-216.5708C116.4709,-207.8153 124.4014,-197.0418 131.5087,-187.3867"/>
<polygon fill="#000000" stroke="#000000" points="134.3749,-189.3969 137.4844,-179.2687 128.7375,-185.2472 134.3749,-189.3969"/>
</g>
<!-- D -->
<g id="node4" class="node">
<title>D</title>
<ellipse fill="none" stroke="#000000" cx="44.1961" cy="-90" rx="44.393" ry="18"/>
<text text-anchor="middle" x="44.1961" y="-86.3" font-family="Times,serif" font-size="14.00" fill="#000000">p=2, h=2</text>
</g>
<!-- B&#45;&gt;D -->
<g id="edge3" class="edge">
<title>B&#45;&gt;D</title>
<path fill="none" stroke="#000000" d="M44.1961,-143.8314C44.1961,-136.131 44.1961,-126.9743 44.1961,-118.4166"/>
<polygon fill="#000000" stroke="#000000" points="47.6962,-118.4132 44.1961,-108.4133 40.6962,-118.4133 47.6962,-118.4132"/>
</g>
<!-- E -->
<g id="node5" class="node">
<title>E</title>
<ellipse fill="none" stroke="#000000" cx="150.1961" cy="-90" rx="44.393" ry="18"/>
<text text-anchor="middle" x="150.1961" y="-86.3" font-family="Times,serif" font-size="14.00" fill="#000000">p=2, h=2</text>
</g>
<!-- C&#45;&gt;E -->
<g id="edge4" class="edge">
<title>C&#45;&gt;E</title>
<path fill="none" stroke="#000000" d="M150.1961,-143.8314C150.1961,-136.131 150.1961,-126.9743 150.1961,-118.4166"/>
<polygon fill="#000000" stroke="#000000" points="153.6962,-118.4132 150.1961,-108.4133 146.6962,-118.4133 153.6962,-118.4132"/>
</g>
<!-- F -->
<g id="node6" class="node">
<title>F</title>
<ellipse fill="none" stroke="#000000" cx="256.1961" cy="-90" rx="44.393" ry="18"/>
<text text-anchor="middle" x="256.1961" y="-86.3" font-family="Times,serif" font-size="14.00" fill="#000000">p=2, h=2</text>
</g>
<!-- C&#45;&gt;F -->
<g id="edge5" class="edge">
<title>C&#45;&gt;F</title>
<path fill="none" stroke="#000000" d="M172.9357,-146.5542C188.0621,-136.2797 208.1341,-122.6459 224.7801,-111.3392"/>
<polygon fill="#000000" stroke="#000000" points="226.8227,-114.1828 233.1283,-105.6687 222.8895,-108.3923 226.8227,-114.1828"/>
</g>
<!-- G -->
<g id="node7" class="node">
<title>G</title>
<ellipse fill="none" stroke="#000000" cx="97.1961" cy="-18" rx="44.393" ry="18"/>
<text text-anchor="middle" x="97.1961" y="-14.3" font-family="Times,serif" font-size="14.00" fill="#000000">p=3, h=1</text>
</g>
<!-- E&#45;&gt;G -->
<g id="edge6" class="edge">
<title>E&#45;&gt;G</title>
<path fill="none" stroke="#000000" d="M137.3663,-72.5708C130.9213,-63.8153 122.9907,-53.0418 115.8835,-43.3867"/>
<polygon fill="#000000" stroke="#000000" points="118.6547,-41.2472 109.9078,-35.2687 113.0173,-45.3969 118.6547,-41.2472"/>
</g>
<!-- H -->
<g id="node8" class="node">
<title>H</title>
<ellipse fill="none" stroke="#000000" cx="203.1961" cy="-18" rx="44.393" ry="18"/>
<text text-anchor="middle" x="203.1961" y="-14.3" font-family="Times,serif" font-size="14.00" fill="#000000">p=3, h=1</text>
</g>
<!-- E&#45;&gt;H -->
<g id="edge7" class="edge">
<title>E&#45;&gt;H</title>
<path fill="none" stroke="#000000" d="M163.0259,-72.5708C169.4709,-63.8153 177.4014,-53.0418 184.5087,-43.3867"/>
<polygon fill="#000000" stroke="#000000" points="187.3749,-45.3969 190.4844,-35.2687 181.7375,-41.2472 187.3749,-45.3969"/>
</g>
</g>
</svg>
