<?xml version="1.0" encoding="UTF-8" standalone="no"?>
<!DOCTYPE svg PUBLIC "-//W3C//DTD SVG 1.1//EN"
 "http://www.w3.org/Graphics/SVG/1.1/DTD/svg11.dtd">
<!-- Generated by graphviz version 2.43.0 (0)
 -->
<!-- Title: %3 Pages: 1 -->
<svg width="380pt" height="260pt"
 viewBox="0.00 0.00 379.79 260.00" xmlns="http://www.w3.org/2000/svg" xmlns:xlink="http://www.w3.org/1999/xlink">
<g id="graph0" class="graph" transform="scale(1 1) rotate(0) translate(4 256)">
<title>%3</title>
<polygon fill="white" stroke="transparent" points="-4,4 -4,-256 375.79,-256 375.79,4 -4,4"/>
<!-- A -->
<g id="node1" class="node">
<title>A</title>
<ellipse fill="none" stroke="black" cx="120.9" cy="-234" rx="55.79" ry="18"/>
<text text-anchor="middle" x="120.9" y="-230.3" font-family="Times,serif" font-size="14.00">p=0, h=3</text>
</g>
<!-- B -->
<g id="node2" class="node">
<title>B</title>
<ellipse fill="none" stroke="black" cx="55.9" cy="-162" rx="55.79" ry="18"/>
<text text-anchor="middle" x="55.9" y="-158.3" font-family="Times,serif" font-size="14.00">p=1, h=2</text>
</g>
<!-- A&#45;&gt;B -->
<g id="edge1" class="edge">
<title>A&#45;&gt;B</title>
<path fill="none" stroke="black" d="M105.49,-216.41C97.32,-207.61 87.12,-196.63 78.11,-186.92"/>
<polygon fill="black" stroke="black" points="80.56,-184.42 71.19,-179.47 75.43,-189.18 80.56,-184.42"/>
</g>
<!-- C -->
<g id="node3" class="node">
<title>C</title>
<ellipse fill="none" stroke="black" cx="185.9" cy="-162" rx="55.79" ry="18"/>
<text text-anchor="middle" x="185.9" y="-158.3" font-family="Times,serif" font-size="14.00">p=1, h=2</text>
</g>
<!-- A&#45;&gt;C -->
<g id="edge2" class="edge">
<title>A&#45;&gt;C</title>
<path fill="none" stroke="black" d="M136.3,-216.41C144.48,-207.61 154.67,-196.63 163.68,-186.92"/>
<polygon fill="black" stroke="black" points="166.36,-189.18 170.6,-179.47 161.23,-184.42 166.36,-189.18"/>
</g>
<!-- D -->
<g id="node4" class="node">
<title>D</title>
<ellipse fill="none" stroke="black" cx="55.9" cy="-90" rx="55.79" ry="18"/>
<text text-anchor="middle" x="55.9" y="-86.3" font-family="Times,serif" font-size="14.00">p=2, h=1</text>
</g>
<!-- B&#45;&gt;D -->
<g id="edge3" class="edge">
<title>B&#45;&gt;D</title>
<path fill="none" stroke="black" d="M55.9,-143.7C55.9,-135.98 55.9,-126.71 55.9,-118.11"/>
<polygon fill="black" stroke="black" points="59.4,-118.1 55.9,-108.1 52.4,-118.1 59.4,-118.1"/>
</g>
<!-- E -->
<g id="node5" class="node">
<title>E</title>
<ellipse fill="none" stroke="black" cx="185.9" cy="-90" rx="55.79" ry="18"/>
<text text-anchor="middle" x="185.9" y="-86.3" font-family="Times,serif" font-size="14.00">p=2, h=1</text>
</g>
<!-- C&#45;&gt;E -->
<g id="edge4" class="edge">
<title>C&#45;&gt;E</title>
<path fill="none" stroke="black" d="M185.9,-143.7C185.9,-135.98 185.9,-126.71 185.9,-118.11"/>
<polygon fill="black" stroke="black" points="189.4,-118.1 185.9,-108.1 182.4,-118.1 189.4,-118.1"/>
</g>
<!-- F -->
<g id="node6" class="node">
<title>F</title>
<ellipse fill="none" stroke="black" cx="315.9" cy="-90" rx="55.79" ry="18"/>
<text text-anchor="middle" x="315.9" y="-86.3" font-family="Times,serif" font-size="14.00">p=2, h=1</text>
</g>
<!-- C&#45;&gt;F -->
<g id="edge5" class="edge">
<title>C&#45;&gt;F</title>
<path fill="none" stroke="black" d="M213.46,-146.15C232.68,-135.81 258.52,-121.89 279.44,-110.63"/>
<polygon fill="black" stroke="black" points="281.22,-113.65 288.37,-105.82 277.9,-107.48 281.22,-113.65"/>
</g>
<!-- G -->
<g id="node7" class="node">
<title>G</title>
<ellipse fill="none" stroke="black" cx="120.9" cy="-18" rx="55.79" ry="18"/>
<text text-anchor="middle" x="120.9" y="-14.3" font-family="Times,serif" font-size="14.00">p=3, h=0</text>
</g>
<!-- E&#45;&gt;G -->
<g id="edge6" class="edge">
<title>E&#45;&gt;G</title>
<path fill="none" stroke="black" d="M170.49,-72.41C162.32,-63.61 152.12,-52.63 143.11,-42.92"/>
<polygon fill="black" stroke="black" points="145.56,-40.42 136.19,-35.47 140.43,-45.18 145.56,-40.42"/>
</g>
<!-- H -->
<g id="node8" class="node">
<title>H</title>
<ellipse fill="none" stroke="black" cx="250.9" cy="-18" rx="55.79" ry="18"/>
<text text-anchor="middle" x="250.9" y="-14.3" font-family="Times,serif" font-size="14.00">p=3, h=0</text>
</g>
<!-- E&#45;&gt;H -->
<g id="edge7" class="edge">
<title>E&#45;&gt;H</title>
<path fill="none" stroke="black" d="M201.3,-72.41C209.48,-63.61 219.67,-52.63 228.68,-42.92"/>
<polygon fill="black" stroke="black" points="231.36,-45.18 235.6,-35.47 226.23,-40.42 231.36,-45.18"/>
</g>
</g>
</svg>
