<?xml version="1.0" encoding="UTF-8" standalone="no"?>
<!DOCTYPE svg PUBLIC "-//W3C//DTD SVG 1.1//EN"
 "http://www.w3.org/Graphics/SVG/1.1/DTD/svg11.dtd">
<!-- Generated by graphviz version 2.43.0 (0)
 -->
<!-- Title: %3 Pages: 1 -->
<svg width="664pt" height="188pt"
 viewBox="0.00 0.00 663.74 188.00" xmlns="http://www.w3.org/2000/svg" xmlns:xlink="http://www.w3.org/1999/xlink">
<g id="graph0" class="graph" transform="scale(1 1) rotate(0) translate(4 184)">
<title>%3</title>
<polygon fill="white" stroke="transparent" points="-4,4 -4,-184 659.74,-184 659.74,4 -4,4"/>
<!-- A -->
<g id="node1" class="node">
<title>A</title>
<ellipse fill="none" stroke="black" cx="268.6" cy="-162" rx="27" ry="18"/>
<text text-anchor="middle" x="268.6" y="-158.3" font-family="Times,serif" font-size="14.00">/</text>
</g>
<!-- B -->
<g id="node2" class="node">
<title>B</title>
<ellipse fill="none" stroke="black" cx="28.6" cy="-90" rx="28.7" ry="18"/>
<text text-anchor="middle" x="28.6" y="-86.3" font-family="Times,serif" font-size="14.00">/bin</text>
</g>
<!-- A&#45;&gt;B -->
<g id="edge1" class="edge">
<title>A&#45;&gt;B</title>
<path fill="none" stroke="black" d="M243,-155.7C204.26,-147.36 128.67,-129.86 66.6,-108 64.49,-107.26 62.34,-106.45 60.19,-105.6"/>
<polygon fill="black" stroke="black" points="61.43,-102.32 50.85,-101.69 58.73,-108.78 61.43,-102.32"/>
</g>
<!-- C -->
<g id="node3" class="node">
<title>C</title>
<ellipse fill="none" stroke="black" cx="109.6" cy="-90" rx="34.39" ry="18"/>
<text text-anchor="middle" x="109.6" y="-86.3" font-family="Times,serif" font-size="14.00">/boot</text>
</g>
<!-- A&#45;&gt;C -->
<g id="edge2" class="edge">
<title>A&#45;&gt;C</title>
<path fill="none" stroke="black" d="M246.49,-151.27C220.04,-139.62 175.45,-119.99 144.37,-106.31"/>
<polygon fill="black" stroke="black" points="145.76,-103.1 135.2,-102.27 142.94,-109.5 145.76,-103.1"/>
</g>
<!-- D -->
<g id="node4" class="node">
<title>D</title>
<ellipse fill="none" stroke="black" cx="192.6" cy="-90" rx="30.59" ry="18"/>
<text text-anchor="middle" x="192.6" y="-86.3" font-family="Times,serif" font-size="14.00">/dev</text>
</g>
<!-- A&#45;&gt;D -->
<g id="edge3" class="edge">
<title>A&#45;&gt;D</title>
<path fill="none" stroke="black" d="M253.22,-146.83C242.54,-137 228.13,-123.72 216.03,-112.58"/>
<polygon fill="black" stroke="black" points="218.2,-109.83 208.48,-105.63 213.46,-114.98 218.2,-109.83"/>
</g>
<!-- E -->
<g id="node5" class="node">
<title>E</title>
<ellipse fill="none" stroke="black" cx="268.6" cy="-90" rx="27.9" ry="18"/>
<text text-anchor="middle" x="268.6" y="-86.3" font-family="Times,serif" font-size="14.00">/etc</text>
</g>
<!-- A&#45;&gt;E -->
<g id="edge4" class="edge">
<title>A&#45;&gt;E</title>
<path fill="none" stroke="black" d="M268.6,-143.7C268.6,-135.98 268.6,-126.71 268.6,-118.11"/>
<polygon fill="black" stroke="black" points="272.1,-118.1 268.6,-108.1 265.1,-118.1 272.1,-118.1"/>
</g>
<!-- F -->
<g id="node6" class="node">
<title>F</title>
<ellipse fill="none" stroke="black" cx="353.6" cy="-90" rx="38.99" ry="18"/>
<text text-anchor="middle" x="353.6" y="-86.3" font-family="Times,serif" font-size="14.00">/home</text>
</g>
<!-- A&#45;&gt;F -->
<g id="edge5" class="edge">
<title>A&#45;&gt;F</title>
<path fill="none" stroke="black" d="M284.99,-147.5C297,-137.61 313.57,-123.96 327.41,-112.56"/>
<polygon fill="black" stroke="black" points="329.7,-115.22 335.19,-106.16 325.25,-109.81 329.7,-115.22"/>
</g>
<!-- I -->
<g id="node9" class="node">
<title>I</title>
<ellipse fill="none" stroke="black" cx="437.6" cy="-90" rx="27" ry="18"/>
<text text-anchor="middle" x="437.6" y="-86.3" font-family="Times,serif" font-size="14.00">/lib</text>
</g>
<!-- A&#45;&gt;I -->
<g id="edge8" class="edge">
<title>A&#45;&gt;I</title>
<path fill="none" stroke="black" d="M291.84,-152.24C318.53,-142.06 363.53,-124.55 401.6,-108 403.4,-107.21 405.25,-106.39 407.12,-105.55"/>
<polygon fill="black" stroke="black" points="408.76,-108.65 416.38,-101.29 405.83,-102.29 408.76,-108.65"/>
</g>
<!-- J -->
<g id="node10" class="node">
<title>J</title>
<ellipse fill="none" stroke="black" cx="521.6" cy="-90" rx="28.7" ry="18"/>
<text text-anchor="middle" x="521.6" y="-86.3" font-family="Times,serif" font-size="14.00">/usr</text>
</g>
<!-- A&#45;&gt;J -->
<g id="edge9" class="edge">
<title>A&#45;&gt;J</title>
<path fill="none" stroke="black" d="M293.72,-155.25C332.57,-146.2 409.44,-127.61 473.6,-108 478.22,-106.59 483.05,-105 487.79,-103.39"/>
<polygon fill="black" stroke="black" points="489.03,-106.66 497.32,-100.06 486.72,-100.06 489.03,-106.66"/>
</g>
<!-- G -->
<g id="node7" class="node">
<title>G</title>
<ellipse fill="none" stroke="black" cx="245.6" cy="-18" rx="44.69" ry="18"/>
<text text-anchor="middle" x="245.6" y="-14.3" font-family="Times,serif" font-size="14.00">/gerard</text>
</g>
<!-- F&#45;&gt;G -->
<g id="edge6" class="edge">
<title>F&#45;&gt;G</title>
<path fill="none" stroke="black" d="M332,-75C316.28,-64.81 294.73,-50.85 277.09,-39.41"/>
<polygon fill="black" stroke="black" points="278.57,-36.2 268.27,-33.7 274.76,-42.07 278.57,-36.2"/>
</g>
<!-- H -->
<g id="node8" class="node">
<title>H</title>
<ellipse fill="none" stroke="black" cx="353.6" cy="-18" rx="45.49" ry="18"/>
<text text-anchor="middle" x="353.6" y="-14.3" font-family="Times,serif" font-size="14.00">/marcel</text>
</g>
<!-- F&#45;&gt;H -->
<g id="edge7" class="edge">
<title>F&#45;&gt;H</title>
<path fill="none" stroke="black" d="M353.6,-71.7C353.6,-63.98 353.6,-54.71 353.6,-46.11"/>
<polygon fill="black" stroke="black" points="357.1,-46.1 353.6,-36.1 350.1,-46.1 357.1,-46.1"/>
</g>
<!-- K -->
<g id="node11" class="node">
<title>K</title>
<ellipse fill="none" stroke="black" cx="445.6" cy="-18" rx="28.7" ry="18"/>
<text text-anchor="middle" x="445.6" y="-14.3" font-family="Times,serif" font-size="14.00">/bin</text>
</g>
<!-- J&#45;&gt;K -->
<g id="edge10" class="edge">
<title>J&#45;&gt;K</title>
<path fill="none" stroke="black" d="M505.85,-74.5C495.08,-64.58 480.63,-51.26 468.57,-40.16"/>
<polygon fill="black" stroke="black" points="470.79,-37.45 461.06,-33.25 466.05,-42.6 470.79,-37.45"/>
</g>
<!-- L -->
<g id="node12" class="node">
<title>L</title>
<ellipse fill="none" stroke="black" cx="531.6" cy="-18" rx="39.79" ry="18"/>
<text text-anchor="middle" x="531.6" y="-14.3" font-family="Times,serif" font-size="14.00">/share</text>
</g>
<!-- J&#45;&gt;L -->
<g id="edge11" class="edge">
<title>J&#45;&gt;L</title>
<path fill="none" stroke="black" d="M524.02,-72.05C525.12,-64.35 526.45,-55.03 527.69,-46.36"/>
<polygon fill="black" stroke="black" points="531.18,-46.67 529.13,-36.28 524.25,-45.68 531.18,-46.67"/>
</g>
<!-- M -->
<g id="node13" class="node">
<title>M</title>
<ellipse fill="none" stroke="black" cx="622.6" cy="-18" rx="33.29" ry="18"/>
<text text-anchor="middle" x="622.6" y="-14.3" font-family="Times,serif" font-size="14.00">/sbin</text>
</g>
<!-- J&#45;&gt;M -->
<g id="edge12" class="edge">
<title>J&#45;&gt;M</title>
<path fill="none" stroke="black" d="M540.12,-76.16C555.25,-65.67 576.89,-50.68 594.2,-38.68"/>
<polygon fill="black" stroke="black" points="596.58,-41.29 602.81,-32.71 592.6,-35.53 596.58,-41.29"/>
</g>
</g>
</svg>
