<?xml version="1.0" encoding="UTF-8" standalone="no"?>
<!DOCTYPE svg PUBLIC "-//W3C//DTD SVG 1.1//EN"
 "http://www.w3.org/Graphics/SVG/1.1/DTD/svg11.dtd">
<!-- Generated by graphviz version 2.43.0 (0)
 -->
<!-- Title: %3 Pages: 1 -->
<svg width="314pt" height="332pt"
 viewBox="0.00 0.00 314.00 332.00" xmlns="http://www.w3.org/2000/svg" xmlns:xlink="http://www.w3.org/1999/xlink">
<g id="graph0" class="graph" transform="scale(1 1) rotate(0) translate(4 328)">
<title>%3</title>
<polygon fill="white" stroke="transparent" points="-4,4 -4,-328 310,-328 310,4 -4,4"/>
<!-- A -->
<g id="node1" class="node">
<title>A</title>
<ellipse fill="green" stroke="black" cx="27" cy="-18" rx="27" ry="18"/>
<text text-anchor="middle" x="27" y="-14.3" font-family="Times,serif" font-size="14.00">2</text>
</g>
<!-- B -->
<g id="node2" class="node">
<title>B</title>
<ellipse fill="none" stroke="black" cx="63" cy="-90" rx="27" ry="18"/>
<text text-anchor="middle" x="63" y="-86.3" font-family="Times,serif" font-size="14.00">+</text>
</g>
<!-- B&#45;&gt;A -->
<g id="edge4" class="edge">
<title>B&#45;&gt;A</title>
<path fill="none" stroke="black" d="M54.65,-72.76C50.29,-64.28 44.85,-53.71 39.96,-44.2"/>
<polygon fill="black" stroke="black" points="42.99,-42.44 35.3,-35.15 36.77,-45.64 42.99,-42.44"/>
</g>
<!-- C -->
<g id="node3" class="node">
<title>C</title>
<ellipse fill="green" stroke="black" cx="99" cy="-18" rx="27" ry="18"/>
<text text-anchor="middle" x="99" y="-14.3" font-family="Times,serif" font-size="14.00">x</text>
</g>
<!-- B&#45;&gt;C -->
<g id="edge5" class="edge">
<title>B&#45;&gt;C</title>
<path fill="none" stroke="black" d="M71.35,-72.76C75.71,-64.28 81.15,-53.71 86.04,-44.2"/>
<polygon fill="black" stroke="black" points="89.23,-45.64 90.7,-35.15 83.01,-42.44 89.23,-45.64"/>
</g>
<!-- D -->
<g id="node4" class="node">
<title>D</title>
<ellipse fill="none" stroke="black" cx="135" cy="-162" rx="27" ry="18"/>
<text text-anchor="middle" x="135" y="-158.3" font-family="Times,serif" font-size="14.00">*</text>
</g>
<!-- D&#45;&gt;B -->
<g id="edge3" class="edge">
<title>D&#45;&gt;B</title>
<path fill="none" stroke="black" d="M120.43,-146.83C110.25,-136.94 96.48,-123.55 84.97,-112.36"/>
<polygon fill="black" stroke="black" points="87.41,-109.85 77.8,-105.38 82.53,-114.87 87.41,-109.85"/>
</g>
<!-- E -->
<g id="node5" class="node">
<title>E</title>
<ellipse fill="green" stroke="black" cx="135" cy="-90" rx="27" ry="18"/>
<text text-anchor="middle" x="135" y="-86.3" font-family="Times,serif" font-size="14.00">3</text>
</g>
<!-- D&#45;&gt;E -->
<g id="edge6" class="edge">
<title>D&#45;&gt;E</title>
<path fill="none" stroke="black" d="M135,-143.7C135,-135.98 135,-126.71 135,-118.11"/>
<polygon fill="black" stroke="black" points="138.5,-118.1 135,-108.1 131.5,-118.1 138.5,-118.1"/>
</g>
<!-- F -->
<g id="node6" class="node">
<title>F</title>
<ellipse fill="none" stroke="black" cx="171" cy="-234" rx="27" ry="18"/>
<text text-anchor="middle" x="171" y="-230.3" font-family="Times,serif" font-size="14.00">&#45;</text>
</g>
<!-- F&#45;&gt;D -->
<g id="edge2" class="edge">
<title>F&#45;&gt;D</title>
<path fill="none" stroke="black" d="M162.65,-216.76C158.29,-208.28 152.85,-197.71 147.96,-188.2"/>
<polygon fill="black" stroke="black" points="150.99,-186.44 143.3,-179.15 144.77,-189.64 150.99,-186.44"/>
</g>
<!-- H -->
<g id="node8" class="node">
<title>H</title>
<ellipse fill="none" stroke="black" cx="207" cy="-162" rx="27" ry="18"/>
<text text-anchor="middle" x="207" y="-158.3" font-family="Times,serif" font-size="14.00">*</text>
</g>
<!-- F&#45;&gt;H -->
<g id="edge7" class="edge">
<title>F&#45;&gt;H</title>
<path fill="none" stroke="black" d="M179.35,-216.76C183.71,-208.28 189.15,-197.71 194.04,-188.2"/>
<polygon fill="black" stroke="black" points="197.23,-189.64 198.7,-179.15 191.01,-186.44 197.23,-189.64"/>
</g>
<!-- G -->
<g id="node7" class="node">
<title>G</title>
<ellipse fill="green" stroke="black" cx="207" cy="-90" rx="27" ry="18"/>
<text text-anchor="middle" x="207" y="-86.3" font-family="Times,serif" font-size="14.00">4</text>
</g>
<!-- H&#45;&gt;G -->
<g id="edge8" class="edge">
<title>H&#45;&gt;G</title>
<path fill="none" stroke="black" d="M207,-143.7C207,-135.98 207,-126.71 207,-118.11"/>
<polygon fill="black" stroke="black" points="210.5,-118.1 207,-108.1 203.5,-118.1 210.5,-118.1"/>
</g>
<!-- I -->
<g id="node9" class="node">
<title>I</title>
<ellipse fill="green" stroke="black" cx="279" cy="-90" rx="27" ry="18"/>
<text text-anchor="middle" x="279" y="-86.3" font-family="Times,serif" font-size="14.00">x</text>
</g>
<!-- H&#45;&gt;I -->
<g id="edge9" class="edge">
<title>H&#45;&gt;I</title>
<path fill="none" stroke="black" d="M221.57,-146.83C231.75,-136.94 245.52,-123.55 257.03,-112.36"/>
<polygon fill="black" stroke="black" points="259.47,-114.87 264.2,-105.38 254.59,-109.85 259.47,-114.87"/>
</g>
<!-- J -->
<g id="node10" class="node">
<title>J</title>
<ellipse fill="none" stroke="black" cx="207" cy="-306" rx="27" ry="18"/>
<text text-anchor="middle" x="207" y="-302.3" font-family="Times,serif" font-size="14.00">+</text>
</g>
<!-- J&#45;&gt;F -->
<g id="edge1" class="edge">
<title>J&#45;&gt;F</title>
<path fill="none" stroke="black" d="M198.65,-288.76C194.29,-280.28 188.85,-269.71 183.96,-260.2"/>
<polygon fill="black" stroke="black" points="186.99,-258.44 179.3,-251.15 180.77,-261.64 186.99,-258.44"/>
</g>
<!-- K -->
<g id="node11" class="node">
<title>K</title>
<ellipse fill="green" stroke="black" cx="243" cy="-234" rx="27" ry="18"/>
<text text-anchor="middle" x="243" y="-230.3" font-family="Times,serif" font-size="14.00">1</text>
</g>
<!-- J&#45;&gt;K -->
<g id="edge10" class="edge">
<title>J&#45;&gt;K</title>
<path fill="none" stroke="black" d="M215.35,-288.76C219.71,-280.28 225.15,-269.71 230.04,-260.2"/>
<polygon fill="black" stroke="black" points="233.23,-261.64 234.7,-251.15 227.01,-258.44 233.23,-261.64"/>
</g>
</g>
</svg>
