<?xml version="1.0" encoding="UTF-8" standalone="no"?>
<!DOCTYPE svg PUBLIC "-//W3C//DTD SVG 1.1//EN"
 "http://www.w3.org/Graphics/SVG/1.1/DTD/svg11.dtd">
<!-- Generated by graphviz version 2.40.1 (20161225.0304)
 -->
<!-- Title: %3 Pages: 1 -->
<svg width="278pt" height="188pt"
 viewBox="0.00 0.00 278.00 188.00" xmlns="http://www.w3.org/2000/svg" xmlns:xlink="http://www.w3.org/1999/xlink">
<g id="graph0" class="graph" transform="scale(1 1) rotate(0) translate(4 184)">
<title>%3</title>
<polygon fill="#ffffff" stroke="transparent" points="-4,4 -4,-184 274,-184 274,4 -4,4"/>
<!-- A -->
<g id="node1" class="node">
<title>A</title>
<ellipse fill="none" stroke="#000000" cx="171" cy="-162" rx="46.5926" ry="18"/>
<text text-anchor="middle" x="171" y="-158.3" font-family="Times,serif" font-size="14.00" fill="#000000">A (racine)</text>
</g>
<!-- B -->
<g id="node2" class="node">
<title>B</title>
<ellipse fill="none" stroke="#ff0000" cx="99" cy="-90" rx="27" ry="18"/>
<text text-anchor="middle" x="99" y="-86.3" font-family="Times,serif" font-size="14.00" fill="#ff0000">B</text>
</g>
<!-- A&#45;&gt;B -->
<g id="edge1" class="edge">
<title>A&#45;&gt;B</title>
<path fill="none" stroke="#000000" d="M153.937,-144.937C144.1659,-135.1659 131.7928,-122.7928 121.2639,-112.2639"/>
<polygon fill="#000000" stroke="#000000" points="123.5327,-109.583 113.9868,-104.9868 118.583,-114.5327 123.5327,-109.583"/>
</g>
<!-- C -->
<g id="node3" class="node">
<title>C</title>
<ellipse fill="none" stroke="#000000" cx="171" cy="-90" rx="27" ry="18"/>
<text text-anchor="middle" x="171" y="-86.3" font-family="Times,serif" font-size="14.00" fill="#000000">C</text>
</g>
<!-- A&#45;&gt;C -->
<g id="edge2" class="edge">
<title>A&#45;&gt;C</title>
<path fill="none" stroke="#000000" d="M171,-143.8314C171,-136.131 171,-126.9743 171,-118.4166"/>
<polygon fill="#000000" stroke="#000000" points="174.5001,-118.4132 171,-108.4133 167.5001,-118.4133 174.5001,-118.4132"/>
</g>
<!-- D -->
<g id="node4" class="node">
<title>D</title>
<ellipse fill="none" stroke="#000000" cx="243" cy="-90" rx="27" ry="18"/>
<text text-anchor="middle" x="243" y="-86.3" font-family="Times,serif" font-size="14.00" fill="#000000">D</text>
</g>
<!-- A&#45;&gt;D -->
<g id="edge3" class="edge">
<title>A&#45;&gt;D</title>
<path fill="none" stroke="#000000" d="M188.063,-144.937C197.8341,-135.1659 210.2072,-122.7928 220.7361,-112.2639"/>
<polygon fill="#000000" stroke="#000000" points="223.417,-114.5327 228.0132,-104.9868 218.4673,-109.583 223.417,-114.5327"/>
</g>
<!-- E -->
<g id="node5" class="node">
<title>E</title>
<ellipse fill="none" stroke="#ff0000" cx="27" cy="-18" rx="27" ry="18"/>
<text text-anchor="middle" x="27" y="-14.3" font-family="Times,serif" font-size="14.00" fill="#ff0000">E</text>
</g>
<!-- B&#45;&gt;E -->
<g id="edge4" class="edge">
<title>B&#45;&gt;E</title>
<path fill="none" stroke="#000000" d="M83.7307,-74.7307C73.803,-64.803 60.6847,-51.6847 49.5637,-40.5637"/>
<polygon fill="#000000" stroke="#000000" points="51.7933,-37.8436 42.2473,-33.2473 46.8436,-42.7933 51.7933,-37.8436"/>
</g>
<!-- F -->
<g id="node6" class="node">
<title>F</title>
<ellipse fill="none" stroke="#ff0000" cx="99" cy="-18" rx="27" ry="18"/>
<text text-anchor="middle" x="99" y="-14.3" font-family="Times,serif" font-size="14.00" fill="#ff0000">F</text>
</g>
<!-- B&#45;&gt;F -->
<g id="edge5" class="edge">
<title>B&#45;&gt;F</title>
<path fill="none" stroke="#000000" d="M99,-71.8314C99,-64.131 99,-54.9743 99,-46.4166"/>
<polygon fill="#000000" stroke="#000000" points="102.5001,-46.4132 99,-36.4133 95.5001,-46.4133 102.5001,-46.4132"/>
</g>
<!-- G -->
<g id="node7" class="node">
<title>G</title>
<ellipse fill="none" stroke="#000000" cx="171" cy="-18" rx="27" ry="18"/>
<text text-anchor="middle" x="171" y="-14.3" font-family="Times,serif" font-size="14.00" fill="#000000">G</text>
</g>
<!-- C&#45;&gt;G -->
<g id="edge6" class="edge">
<title>C&#45;&gt;G</title>
<path fill="none" stroke="#000000" d="M171,-71.8314C171,-64.131 171,-54.9743 171,-46.4166"/>
<polygon fill="#000000" stroke="#000000" points="174.5001,-46.4132 171,-36.4133 167.5001,-46.4133 174.5001,-46.4132"/>
</g>
</g>
</svg>
